<svg xmlns="http://www.w3.org/2000/svg" version="1.1" xmlns:xlink="http://www.w3.org/1999/xlink" xmlns:svgjs="http://svgjs.com/svgjs" width="20" height="20"><svg version="1.1" id="SvgjsSvg1000" xmlns="http://www.w3.org/2000/svg" xmlns:xlink="http://www.w3.org/1999/xlink" x="0px" y="0px" viewBox="0 0 20 20" style="enable-background:new 0 0 20 20;" xml:space="preserve">
<path d="M10,0c5.5,0,10,4.5,10,10c0,5.5-4.5,10-10,10C4.5,20,0,15.5,0,10C0,4.5,4.5,0,10,0z M10,1.5L10,1.5c-4.7,0-8.5,3.8-8.5,8.5
	s3.8,8.5,8.5,8.5h0V1.5z M11.5,18.4c1-0.2,1.9-0.5,2.8-1h-2.8V18.4z M17.1,14.7h-5.6v1.1h4.7C16.5,15.5,16.8,15.1,17.1,14.7z
	 M18.2,12.1h-6.7v1.1h6.4C18,12.8,18.1,12.5,18.2,12.1z M18.5,9.4h-7v1.1h7c0-0.2,0-0.4,0-0.6C18.5,9.8,18.5,9.6,18.5,9.4z
	 M17.9,6.8h-6.4v1.1h6.7C18.1,7.5,18,7.1,17.9,6.8z M16.2,4.1h-4.6v1.1h5.6C16.8,4.9,16.5,4.5,16.2,4.1z M11.5,1.6v1h2.7
	C13.4,2.2,12.5,1.8,11.5,1.6z"></path>
</svg><style>@media (prefers-color-scheme: light) { :root { filter: none; } }
@media (prefers-color-scheme: dark) { :root { filter: invert(100%); } }
</style></svg>